<?xml version="1.0" standalone="no"?>
<!DOCTYPE svg PUBLIC "-//W3C//DTD SVG 20010904//EN"
 "http://www.w3.org/TR/2001/REC-SVG-20010904/DTD/svg10.dtd">
<svg version="1.0" xmlns="http://www.w3.org/2000/svg"
 width="461.000000pt" height="520.000000pt" viewBox="0 0 461.000000 520.000000"
 preserveAspectRatio="xMidYMid meet">

<g transform="translate(0.000000,520.000000) scale(0.100000,-0.100000)"
fill="#000000" stroke="none">
<path d="M2240 4979 c-224 -18 -489 -93 -694 -195 -551 -275 -919 -762 -1048
-1389 -20 -97 -23 -139 -22 -350 0 -221 2 -250 27 -365 14 -69 36 -158 48
-197 l22 -73 579 0 c318 0 578 2 578 4 0 3 -89 55 -197 117 -109 62 -206 119
-216 127 -16 14 -17 42 -15 381 l3 366 319 186 318 186 311 -178 c171 -98 315
-183 320 -188 7 -7 -192 -134 -313 -198 -14 -7 -88 -51 -165 -96 l-140 -83 -3
-312 -2 -312 38 0 39 0 -5 280 c-2 153 -2 286 1 294 5 12 47 -8 199 -95 106
-61 247 -142 314 -180 67 -38 126 -69 131 -69 6 0 147 79 313 176 166 96 309
178 316 181 12 4 14 -43 14 -291 l0 -296 464 0 464 0 16 48 c98 304 115 689
45 1007 -153 690 -679 1250 -1355 1444 -240 69 -457 91 -704 70z m734 -950
c165 -95 309 -179 319 -187 16 -14 17 -45 17 -381 l0 -366 -314 -183 c-173
-100 -319 -182 -325 -182 -7 0 -12 117 -13 366 l-3 366 -309 177 c-171 98
-311 182 -313 187 -4 11 603 372 626 373 7 1 149 -76 315 -170z"/>
<path d="M1994 2151 c-67 -41 -86 -168 -35 -239 52 -74 154 -60 199 28 69 138
-44 284 -164 211z m116 -29 c59 -59 46 -193 -23 -228 -103 -54 -178 149 -86
235 32 30 75 27 109 -7z"/>
<path d="M1507 2148 c4 -7 28 -71 53 -142 26 -72 51 -131 57 -133 5 -2 24 34
40 79 17 46 34 83 38 83 4 0 21 -37 37 -83 17 -46 35 -81 41 -79 8 2 117 268
117 284 0 2 -6 3 -13 3 -7 0 -30 -48 -53 -111 -22 -61 -44 -110 -49 -110 -5 0
-15 17 -22 38 -46 137 -66 183 -80 183 -10 0 -13 -6 -9 -16 18 -47 17 -69 -9
-139 -15 -41 -30 -75 -34 -75 -3 0 -24 52 -45 115 -31 93 -42 115 -58 115 -13
0 -17 -4 -11 -12z"/>
<path d="M2260 2015 c0 -122 2 -145 15 -145 12 0 15 13 15 56 0 54 0 55 27 52
20 -2 37 -17 63 -55 21 -31 43 -52 54 -53 20 0 24 -7 -38 79 l-29 41 27 26
c35 35 35 86 1 119 -20 21 -34 25 -80 25 l-55 0 0 -145z m108 109 c48 -33 14
-114 -48 -114 l-30 0 0 65 c0 64 0 65 28 65 15 0 38 -7 50 -16z"/>
<path d="M2524 2144 c3 -9 6 -74 6 -145 0 -99 3 -129 13 -129 10 0 12 16 9 66
-3 36 0 70 5 75 6 6 30 -17 67 -66 31 -41 63 -75 71 -75 8 0 15 2 15 5 0 3
-25 37 -55 76 -30 39 -55 73 -55 75 0 1 23 30 50 63 53 64 57 71 37 71 -7 0
-35 -29 -62 -65 -28 -35 -56 -64 -62 -65 -9 0 -13 19 -13 65 0 53 -3 65 -16
65 -11 0 -14 -5 -10 -16z"/>
<path d="M2784 2144 c3 -9 6 -74 6 -145 0 -96 3 -129 13 -129 9 0 11 34 9 145
-3 123 -5 145 -19 145 -10 0 -13 -6 -9 -16z"/>
<path d="M2924 2144 c3 -9 6 -74 6 -145 0 -96 3 -129 13 -129 8 0 12 20 12 67
l0 68 43 3 c23 2 42 7 42 12 0 5 -19 10 -42 12 l-43 3 0 50 0 50 53 3 c78 5
63 22 -19 22 -61 0 -70 -2 -65 -16z"/>
<path d="M3149 2083 c36 -70 41 -88 41 -146 0 -53 3 -67 15 -67 12 0 15 14 15
68 0 59 5 75 41 141 37 69 43 91 21 77 -5 -3 -22 -31 -37 -61 -15 -31 -31 -55
-35 -53 -5 2 -22 28 -37 58 -16 30 -37 56 -47 58 -14 3 -10 -11 23 -75z"/>
<path d="M1135 1583 c222 -205 551 -368 887 -439 169 -35 477 -45 648 -20 396
58 700 199 1035 481 l30 25 -1325 0 -1325 -1 50 -46z"/>
</g>
</svg>
